<svg xmlns="http://www.w3.org/2000/svg" viewBox="0 0 900 600">
  <defs>
    <linearGradient id="bg2" x1="0" y1="0" x2="1" y2="1">
      <stop offset="0%" stop-color="#081523"/>
      <stop offset="100%" stop-color="#1b324f"/>
    </linearGradient>
  </defs>
  <rect width="900" height="600" rx="40" fill="url(#bg2)"/>
  <rect x="120" y="120" width="660" height="320" rx="32" fill="#0f172a" opacity="0.95"/>
  <rect x="160" y="160" width="240" height="180" rx="28" fill="#1e293b"/>
  <rect x="440" y="160" width="320" height="180" rx="28" fill="#111827"/>
  <path d="M220 420c40-80 120-130 220-130s180 50 220 130" fill="#0f172a"/>
  <circle cx="260" cy="220" r="48" fill="#cbd5e1"/>
  <circle cx="600" cy="220" r="48" fill="#cbd5e1"/>
  <rect x="235" y="280" width="50" height="150" rx="24" fill="#e2e8f0" opacity="0.38"/>
  <rect x="575" y="280" width="50" height="150" rx="24" fill="#e2e8f0" opacity="0.38"/>
  <path d="M190 430h520" stroke="#38bdf8" stroke-width="16" stroke-linecap="round"/>
  <path d="M520 200h200" stroke="#94a3b8" stroke-width="12" stroke-linecap="round"/>
  <path d="M520 240h140" stroke="#94a3b8" stroke-width="12" stroke-linecap="round"/>
  <text x="120" y="86" fill="#fff" font-family="Inter, sans-serif" font-size="44" font-weight="700">Presentation</text>
  <text x="120" y="138" fill="#94a3b8" font-family="Inter, sans-serif" font-size="24">Sharing ideas with clients</text>
</svg>